<svg width="24" height="24" viewBox="0 0 24 24" fill="none" xmlns="http://www.w3.org/2000/svg">
<path d="M16 12C16 13.3807 17.1193 14.5 18.5 14.5C19.8807 14.5 21 13.3807 21 12C21 10.6193 19.8807 9.5 18.5 9.5C17.1193 9.5 16 10.6193 16 12ZM16 12L12.5 12M9 6.5C9 5.11929 7.88071 4 6.5 4C5.11929 4 4 5.11929 4 6.5C4 7.88071 5.11929 9 6.5 9C7.88071 9 9 7.88071 9 6.5ZM9 6.5L12.5 6.5L12.5 12M9 17.5C9 16.1193 7.88071 15 6.5 15C5.11929 15 4 16.1193 4 17.5C4 18.8807 5.11929 20 6.5 20C7.88071 20 9 18.8807 9 17.5ZM9 17.5L12.5 17.5L12.5 12" stroke="black" stroke-width="2" stroke-linecap="round" stroke-linejoin="round"/>
</svg>
